<svg width="16" height="16" viewBox="0 0 16 16" fill="none" xmlns="http://www.w3.org/2000/svg">
<path d="M9.33329 9.50129V10.8942C8.91623 10.7468 8.46749 10.6666 7.99996 10.6666C5.79082 10.6666 3.99996 12.4575 3.99996 14.6666H2.66663C2.66663 11.7211 5.05444 9.33329 7.99996 9.33329C8.46036 9.33329 8.90716 9.39163 9.33329 9.50129ZM7.99996 8.66663C5.78996 8.66663 3.99996 6.87663 3.99996 4.66663C3.99996 2.45663 5.78996 0.666626 7.99996 0.666626C10.21 0.666626 12 2.45663 12 4.66663C12 6.87663 10.21 8.66663 7.99996 8.66663ZM7.99996 7.33329C9.47329 7.33329 10.6666 6.13996 10.6666 4.66663C10.6666 3.19329 9.47329 1.99996 7.99996 1.99996C6.52663 1.99996 5.33329 3.19329 5.33329 4.66663C5.33329 6.13996 6.52663 7.33329 7.99996 7.33329ZM12 11.3333V9.33329H13.3333V11.3333H15.3333V12.6666H13.3333V14.6666H12V12.6666H9.99996V11.3333H12Z" fill="#4F5050"/>
</svg>
