<svg width="17" height="18" viewBox="0 0 17 18" fill="none" xmlns="http://www.w3.org/2000/svg">
<path d="M10.5 4.83339L5.08333 10.2501C4.75181 10.5816 4.56556 11.0312 4.56556 11.5001C4.56556 11.9689 4.75181 12.4185 5.08333 12.7501C5.41485 13.0816 5.86449 13.2678 6.33333 13.2678C6.80217 13.2678 7.25181 13.0816 7.58333 12.7501L13 7.33339C13.663 6.67034 14.0355 5.77107 14.0355 4.83339C14.0355 3.8957 13.663 2.99643 13 2.33339C12.337 1.67034 11.4377 1.29785 10.5 1.29785C9.56231 1.29785 8.66304 1.67034 8 2.33339L2.58333 7.75005C1.58877 8.74461 1.03003 10.0935 1.03003 11.5001C1.03003 12.9066 1.58877 14.2555 2.58333 15.2501C3.57789 16.2446 4.92681 16.8034 6.33333 16.8034C7.73985 16.8034 9.08877 16.2446 10.0833 15.2501L15.5 9.83339" stroke="#898A8A" stroke-width="2" stroke-linecap="round" stroke-linejoin="round"/>
</svg>
