<svg width="20" height="20" viewBox="0 0 20 20" fill="none" xmlns="http://www.w3.org/2000/svg">
<path d="M9.99996 1.66667C5.39996 1.66667 1.66663 5.40001 1.66663 10C1.66663 14.6 5.39996 18.3333 9.99996 18.3333C14.6 18.3333 18.3333 14.6 18.3333 10C18.3333 5.40001 14.6 1.66667 9.99996 1.66667ZM12.9416 10.8583L10.4416 13.3583C10.3166 13.4833 10.1583 13.5417 9.99996 13.5417C9.84163 13.5417 9.68329 13.4833 9.55829 13.3583L7.05829 10.8583C6.81663 10.6167 6.81663 10.2167 7.05829 9.97501C7.29996 9.73334 7.69996 9.73334 7.94163 9.97501L9.37496 11.4083V7.08334C9.37496 6.74167 9.65829 6.45834 9.99996 6.45834C10.3416 6.45834 10.625 6.74167 10.625 7.08334V11.4083L12.0583 9.97501C12.3 9.73334 12.7 9.73334 12.9416 9.97501C13.1833 10.2167 13.1833 10.6167 12.9416 10.8583Z" fill="#313232"/>
</svg>
