<svg width="106" height="84" viewBox="0 0 106 84" fill="none" xmlns="http://www.w3.org/2000/svg">
<path d="M11.9303 33.6282C11.443 33.6282 10.99 33.3424 10.7835 32.882L0.347599 9.59356C0.189622 9.24158 0.200091 8.8359 0.375197 8.49158C0.550303 8.14824 0.871974 7.90367 1.24786 7.8279L39.0147 0.215667C39.5248 0.113045 40.0444 0.336511 40.3242 0.778654L54.4364 23.1491C54.6591 23.5011 54.6944 23.9413 54.5326 24.3259C54.3708 24.7105 54.031 24.9896 53.6256 25.073L12.1825 33.603C12.0987 33.6193 12.014 33.628 11.9303 33.628L11.9303 33.6282ZM3.29401 10.0021L12.6651 30.9139L51.3309 22.9545L38.6633 2.87335L3.29401 10.0021Z" fill="#E1E2E2"/>
<path d="M94.7922 33.6282C94.7085 33.6282 94.6247 33.6205 94.54 33.6023L53.1212 25.0723C52.7187 24.9889 52.3827 24.7146 52.2191 24.3348C52.0554 23.955 52.0858 23.5196 52.2999 23.1666L65.884 0.796178C66.16 0.342522 66.6872 0.11043 67.2049 0.214017L104.972 7.82625C105.344 7.90106 105.663 8.1418 105.84 8.48035C106.016 8.8189 106.032 9.21979 105.882 9.57178L95.9489 32.8602C95.7462 33.334 95.2866 33.6285 94.7917 33.6285L94.7922 33.6282ZM55.3833 22.9489L94.0394 30.9103L102.954 10.008L67.5719 2.8763L55.3833 22.9489Z" fill="#E1E2E2"/>
<path d="M53.3734 83.9263C53.3001 83.9263 53.2269 83.9196 53.1545 83.9072L11.3459 76.4648C10.7445 76.3574 10.3058 75.8309 10.3058 75.2151V57.5777C10.3058 57.1844 10.4866 56.8133 10.7959 56.5735C11.1052 56.3338 11.5068 56.2513 11.8846 56.351L38.6615 63.428L52.2894 40.2721C52.5787 39.7811 53.1583 39.5452 53.7055 39.6957C54.2527 39.8472 54.6315 40.3479 54.6315 40.9195V82.6611C54.6315 83.0361 54.4668 83.3919 54.1813 83.6336C53.9529 83.8244 53.6655 83.9271 53.3715 83.9271L53.3734 83.9263ZM12.8244 74.1505L52.1139 81.145L52.1148 45.544L40.3448 65.5447C40.0583 66.0319 39.4854 66.2678 38.943 66.1249L12.8263 59.2225L12.8244 74.1505Z" fill="#E1E2E2"/>
<path d="M53.3734 83.9263C53.0803 83.9263 52.7939 83.8227 52.5655 83.63C52.28 83.3892 52.1144 83.0325 52.1144 82.6575L52.1153 40.9184C52.1153 40.3429 52.4998 39.8394 53.0518 39.6927C53.6037 39.544 54.1852 39.7905 54.4679 40.2902L67.5732 63.4242L94.3355 56.3519C94.7133 56.2521 95.1149 56.3346 95.4242 56.5744C95.7335 56.8151 95.9143 57.1853 95.9143 57.5785V75.216C95.9143 75.8308 95.4775 76.3563 94.877 76.4647L53.5971 83.908C53.5219 83.9214 53.4477 83.9272 53.3734 83.9272L53.3734 83.9263ZM54.6325 45.6982V81.1421L93.3933 74.1532V59.2214L67.2767 66.1239C66.7247 66.2687 66.1461 66.0241 65.8644 65.5254L54.6325 45.6982Z" fill="#E1E2E2"/>
<path d="M66.9581 66.1651C66.5146 66.1651 66.093 65.9273 65.8646 65.5254L52.2805 41.5465C52.0807 41.1936 52.0607 40.7648 52.2272 40.3946C52.3938 40.0244 52.7259 39.7568 53.1209 39.6744L94.5397 31.1193C95.1183 31.0004 95.7026 31.3025 95.9434 31.8473L105.876 54.4009C106.025 54.7414 106.02 55.1298 105.86 55.4654C105.7 55.8011 105.402 56.0486 105.044 56.1426L67.2774 66.1226C67.1717 66.1514 67.0642 66.1648 66.9586 66.1648L66.9581 66.1651ZM55.3288 41.8084L67.573 63.4221L102.974 54.0664L94.0534 33.8087L55.3288 41.8084Z" fill="#E1E2E2"/>
<path d="M39.2626 66.1651C39.157 66.1651 39.0494 66.1517 38.9438 66.1238L1.17695 56.1428C0.816266 56.0469 0.515558 55.7946 0.356617 55.4542C0.19769 55.1137 0.19769 54.7195 0.354713 54.379L10.7907 31.8254C11.0371 31.2931 11.6138 31.0025 12.1839 31.1186L53.6271 39.6736C54.0258 39.7561 54.3608 40.0275 54.5254 40.4035C54.6901 40.7785 54.6644 41.2111 54.4569 41.564L40.3447 65.5429C40.1163 65.9352 39.7014 66.1653 39.2645 66.1653L39.2626 66.1651ZM3.27423 54.074L38.6633 63.426L51.3888 41.8027L12.6524 33.806L3.27423 54.074Z" fill="#E1E2E2"/>
<path d="M61.9223 56.0151C61.3579 56.0151 60.845 55.6306 60.7022 55.0541C60.5338 54.3742 60.944 53.6855 61.6187 53.5158L91.8332 45.9036C92.5069 45.7328 93.1912 46.1472 93.3596 46.8271C93.528 47.5071 93.1179 48.1957 92.4432 48.3655L62.2287 55.9777C62.1259 56.0027 62.0231 56.0151 61.9223 56.0151V56.0151Z" fill="#E1E2E2"/>
</svg>
