<svg width="32" height="32" viewBox="0 0 32 32" fill="none" xmlns="http://www.w3.org/2000/svg">
<g clip-path="url(#clip0_2816_32485)">
<path d="M21.7142 9.14286C21.7142 8.512 21.2022 8 20.5714 8H11.4285C10.7976 8 10.2856 8.512 10.2856 9.14286V10.2857H21.7142V9.14286Z" fill="#313232"/>
<path d="M22.8571 11.4286H9.14286C8.512 11.4286 8 11.9406 8 12.5714V19.4286C8 20.0594 8.512 20.5714 9.14286 20.5714H10.2857V22.8572C10.2857 23.488 10.7977 24 11.4286 24H20.5714C21.2023 24 21.7143 23.488 21.7143 22.8572V20.5714H22.8571C23.488 20.5714 24 20.0594 24 19.4286V12.5714C24 11.9406 23.488 11.4286 22.8571 11.4286ZM20.5714 22.8572H11.4286V17.1429H20.5714V22.8572ZM21.7143 14.8572H19.4286V13.7143H21.7143V14.8572Z" fill="#313232"/>
<path d="M15.9999 20.5714H12.5713V21.7143H15.9999V20.5714Z" fill="#313232"/>
<path d="M19.4284 18.2858H12.5713V19.4286H19.4284V18.2858Z" fill="#313232"/>
</g>
<defs>
<clipPath id="clip0_2816_32485">
<rect width="16" height="16" fill="white" transform="translate(8 8)"/>
</clipPath>
</defs>
</svg>
