<svg width="16" height="16" viewBox="0 0 16 16" fill="none" xmlns="http://www.w3.org/2000/svg">
<path d="M4.48671 13.1334C5.03337 12.5467 5.86671 12.5934 6.34671 13.2334L7.02004 14.1334C7.56004 14.8467 8.43337 14.8467 8.97337 14.1334L9.64671 13.2334C10.1267 12.5934 10.96 12.5467 11.5067 13.1334C12.6934 14.4 13.66 13.98 13.66 12.2067V4.69337C13.6667 2.00671 13.04 1.33337 10.52 1.33337H5.48004C2.96004 1.33337 2.33337 2.00671 2.33337 4.69337V12.2C2.33337 13.98 3.30671 14.3934 4.48671 13.1334Z" stroke="#626363" stroke-width="1.5" stroke-linecap="round" stroke-linejoin="round"/>
<path d="M5.39742 7.33333H5.40341" stroke="#626363" stroke-width="1.5" stroke-linecap="round" stroke-linejoin="round"/>
<path d="M7.26562 7.33337H10.9323" stroke="#626363" stroke-width="1.5" stroke-linecap="round" stroke-linejoin="round"/>
<path d="M5.39742 4.66671H5.40341" stroke="#626363" stroke-width="1.5" stroke-linecap="round" stroke-linejoin="round"/>
<path d="M7.26562 4.66663H10.9323" stroke="#626363" stroke-width="1.5" stroke-linecap="round" stroke-linejoin="round"/>
</svg>
