<svg width="20" height="20" viewBox="0 0 20 20" fill="none" xmlns="http://www.w3.org/2000/svg">
<path d="M16.75 7.68333C15.2416 7.68333 14.625 6.61666 15.375 5.30833C15.8083 4.55 15.55 3.58333 14.7916 3.15L13.35 2.325C12.6916 1.93333 11.8416 2.16666 11.45 2.825L11.3583 2.98333C10.6083 4.29166 9.37496 4.29166 8.61663 2.98333L8.52496 2.825C8.14996 2.16666 7.29996 1.93333 6.64163 2.325L5.19996 3.15C4.44163 3.58333 4.18329 4.55833 4.61663 5.31666C5.37496 6.61666 4.75829 7.68333 3.24996 7.68333C2.38329 7.68333 1.66663 8.39166 1.66663 9.26666V10.7333C1.66663 11.6 2.37496 12.3167 3.24996 12.3167C4.75829 12.3167 5.37496 13.3833 4.61663 14.6917C4.18329 15.45 4.44163 16.4167 5.19996 16.85L6.64163 17.675C7.29996 18.0667 8.14996 17.8333 8.54163 17.175L8.63329 17.0167C9.38329 15.7083 10.6166 15.7083 11.375 17.0167L11.4666 17.175C11.8583 17.8333 12.7083 18.0667 13.3666 17.675L14.8083 16.85C15.5666 16.4167 15.825 15.4417 15.3916 14.6917C14.6333 13.3833 15.25 12.3167 16.7583 12.3167C17.625 12.3167 18.3416 11.6083 18.3416 10.7333V9.26666C18.3333 8.4 17.625 7.68333 16.75 7.68333ZM9.99996 12.7083C8.50829 12.7083 7.29163 11.4917 7.29163 10C7.29163 8.50833 8.50829 7.29167 9.99996 7.29167C11.4916 7.29167 12.7083 8.50833 12.7083 10C12.7083 11.4917 11.4916 12.7083 9.99996 12.7083Z" fill="#313232"/>
</svg>
